<svg xmlns="http://www.w3.org/2000/svg" xmlns:xlink="http://www.w3.org/1999/xlink" width="51.866" height="66.491" viewBox="0 0 51.866 66.491">
  <defs>
    <clipPath id="clip-path">
      <rect id="Rectangle_236" data-name="Rectangle 236" width="51.866" height="66.492" fill="none"/>
    </clipPath>
  </defs>
  <g id="Group_1381" data-name="Group 1381" transform="translate(0 0)">
    <path id="Path_490" data-name="Path 490" d="M23.1,39.04l-3.38-1.949.03.01h.034l.038-.01.039-.01,3.38,1.952-.04.019-.037.01-.034-.01Z" transform="translate(9.536 20.202)" fill="#fff" fill-rule="evenodd"/>
    <g id="Group_1380" data-name="Group 1380" transform="translate(0 0)">
      <g id="Group_1379" data-name="Group 1379" clip-path="url(#clip-path)">
        <path id="Path_491" data-name="Path 491" d="M24.783,40.49h-.007a.791.791,0,0,1-.184-.029c-.022-.013-.082-.027-.1-.042l-4.855-2.8a.452.452,0,0,1-.184-.577.429.429,0,0,1,.461-.246.453.453,0,0,1,.361.033l4.855,2.8a.443.443,0,0,1,.22.4.449.449,0,0,1-.259.391c-.029.014-.113.042-.145.056s-.121.014-.164.014" transform="translate(8.472 16.048)" fill="#1f303e" fill-rule="evenodd"/>
        <path id="Path_492" data-name="Path 492" d="M21.668,29.048l-4.851-2.8.078-.128.085-.132.1-.112.1-.118.1-.113.111-.088.113-.086.113-.07,2.16-1.248.118-.06L20,24.048l.109-.029.108-.014.095-.013.1.013.085.029,4.855,2.8-.086-.029H25.07l-.1.014-.111.029-.113.046-.116.056L22.466,28.2l-.109.072-.113.085-.111.1-.106.1-.095.113-.093.118-.085.128Z" transform="translate(7.339 10.47)" fill="#cdfdff" fill-rule="evenodd"/>
        <path id="Path_493" data-name="Path 493" d="M21.8,29.622a.57.57,0,0,1-.217-.056l-4.858-2.8a.484.484,0,0,1-.205-.273.426.426,0,0,1,.049-.343l.659-.794.28-.2,2.616-1.438c.014,0,.134-.029.152-.029h.22a.653.653,0,0,1,.167.029.848.848,0,0,1,.184.056l4.855,2.817a.432.432,0,0,1,.187.546.451.451,0,0,1-.527.259l-.029-.184-.075.142-.039-.029-.01.056-.246.1-2.646,1.711-.138.213a.429.429,0,0,1-.379.215m-4.21-3.387,4.078,2.357.55-.533.145-.1,1.974-1.133-3.933-2.268-.292.128Z" transform="translate(7.204 10.339)" fill="#1f303e" fill-rule="evenodd"/>
        <path id="Path_494" data-name="Path 494" d="M24.716,40.321l-4.855-2.8,2.481-1.439,4.855,2.8Z" transform="translate(8.668 15.745)" fill="#cdfdff" fill-rule="evenodd"/>
        <path id="Path_495" data-name="Path 495" d="M24.852,40.884a.4.4,0,0,1-.22-.057l-4.858-2.8a.424.424,0,0,1-.224-.372.442.442,0,0,1,.224-.386l2.481-1.439a.49.49,0,0,1,.442,0l4.851,2.818a.413.413,0,0,1,.22.372.457.457,0,0,1-.215.386l-2.481,1.423a.407.407,0,0,1-.22.057m-3.969-3.232,3.969,2.282,1.594-.918-3.969-2.3Z" transform="translate(8.532 15.611)" fill="#1f303e" fill-rule="evenodd"/>
        <path id="Path_496" data-name="Path 496" d="M24.487,48.557l-4.851-2.8-4.983-5.674,4.855,2.8Z" transform="translate(6.395 17.491)" fill="#658499" fill-rule="evenodd"/>
        <path id="Path_497" data-name="Path 497" d="M24.621,49.135a.406.406,0,0,1-.215-.072l-4.858-2.8a.3.3,0,0,1-.111-.088L14.458,40.5a.421.421,0,0,1-.01-.56.449.449,0,0,1,.563-.112l4.855,2.812a.245.245,0,0,1,.113.086l4.974,5.662a.444.444,0,0,1,.011.573.423.423,0,0,1-.345.171m-4.571-3.6,2.466,1.435-3.154-3.6L16.9,41.941Z" transform="translate(6.261 17.358)" fill="#1f303e" fill-rule="evenodd"/>
        <path id="Path_498" data-name="Path 498" d="M19.509,43.32l-4.855-2.8,2.5-1.435L22,41.881Z" transform="translate(6.395 17.056)" fill="#cdfdff" fill-rule="evenodd"/>
        <path id="Path_499" data-name="Path 499" d="M19.643,43.9a.394.394,0,0,1-.217-.057l-4.854-2.8a.462.462,0,0,1-.224-.389.454.454,0,0,1,.224-.386l2.488-1.439a.481.481,0,0,1,.438,0l4.855,2.818a.409.409,0,0,1,.224.372.444.444,0,0,1-.224.386l-2.488,1.438a.4.4,0,0,1-.223.057m-3.969-3.246,3.969,2.3,1.6-.935-3.964-2.282Z" transform="translate(6.262 16.921)" fill="#1f303e" fill-rule="evenodd"/>
        <path id="Path_500" data-name="Path 500" d="M16.671,26.666l0-.128L16.7,26.4l.024-.145.036-.131.053-.142.053-.145.068-.141L17,25.56l4.851,2.8-.07.128-.068.145-.057.141-.046.147-.034.141-.033.145-.017.128,0,.145v17.81l-.007.07-.014.075-.026.072-.034.07-.05.056-.042.06-.05.043-.063.042-4.848-2.8.05-.029.056-.06.046-.057.046-.07.036-.06.024-.068.014-.075.007-.07Z" transform="translate(7.153 11.154)" fill="#658499" fill-rule="evenodd"/>
        <path id="Path_501" data-name="Path 501" d="M21.345,48.35a.357.357,0,0,1-.187-.046L16.3,45.5a.442.442,0,0,1-.036-.747l.386.131.014-.014-.3-.23,0-17.842v-.014l.162-.819.224-.488a.509.509,0,0,1,.269-.217.476.476,0,0,1,.338.046l4.858,2.8a.459.459,0,0,1,.169.606l-.283.918v17.8a1.394,1.394,0,0,1-.014.172c0,.014-.024.1-.034.128s-.036.1-.043.118-.053.1-.065.113-.056.088-.07.1-.07.072-.082.086a.409.409,0,0,1-.109.1.659.659,0,0,1-.338.1m.171-.662.063.029-.056-.043Zm-4.341-2.7,4.043,2.328.1-18.375.1-.271-4.079-2.353-.092.5V44.629a.94.94,0,0,1-.014.169.654.654,0,0,1-.034.118.351.351,0,0,1-.022.07" transform="translate(7.017 11.02)" fill="#1f303e" fill-rule="evenodd"/>
        <path id="Path_502" data-name="Path 502" d="M20.808,47.124V29.313a2.514,2.514,0,0,1,1.128-1.966L24.1,26.1a.821.821,0,0,1,.8-.075.8.8,0,0,1,.333.734V44.568c0,.184.124.259.283.174L27.995,43.3,23.013,54.725l-4.98-5.674,2.488-1.439a.608.608,0,0,0,.287-.488" transform="translate(7.87 11.324)" fill="#cdfdff" fill-rule="evenodd"/>
        <path id="Path_503" data-name="Path 503" d="M23.146,55.3a.437.437,0,0,1-.33-.157l-4.979-5.658a.5.5,0,0,1-.106-.376.418.418,0,0,1,.22-.3l2.488-1.436a.265.265,0,0,0,.06-.116V29.448a2.745,2.745,0,0,1,.4-1.35,2.606,2.606,0,0,1,.954-.993l2.157-1.25a1.232,1.232,0,0,1,1.244-.086,1.258,1.258,0,0,1,.56,1.12V44.271l2.094-1.2a.4.4,0,0,1,.513.042.437.437,0,0,1,.113.5L23.553,55.03a.411.411,0,0,1-.336.259c-.024,0-.046.014-.07.014m-4.288-6,4.163,4.737,4.16-9.535-1.314.747a.657.657,0,0,1-.645.029.642.642,0,0,1-.3-.575V26.89c0-.213-.053-.316-.106-.358a.522.522,0,0,0-.358.085l-2.162,1.251a2.065,2.065,0,0,0-.911,1.58v17.81a1.057,1.057,0,0,1-.5.875Zm2.083-2.041h0Z" transform="translate(7.736 11.189)" fill="#1f303e" fill-rule="evenodd"/>
        <path id="Path_504" data-name="Path 504" d="M29.8,7.311,29.6,6.78a7.22,7.22,0,0,0-2.031-2.831L27.2,3.661l-.389-.244L26.4,3.2l7.445,4.295a6.424,6.424,0,0,1,2.459,2.183,10.354,10.354,0,0,1,.939,1.942.554.554,0,0,0,.261.286L30.065,7.6a.434.434,0,0,1-.263-.287" transform="translate(11.523 1.396)" fill="#658499" fill-rule="evenodd"/>
        <path id="Path_505" data-name="Path 505" d="M37.644,12.471a.352.352,0,0,1-.21-.057.466.466,0,0,1-.073-.027L29.975,8.12a.883.883,0,0,1-.44-.475.252.252,0,0,1-.014-.043l-.2-.531A6.757,6.757,0,0,0,27.4,4.417L26.978,4.1l-.662-.386a.438.438,0,0,1,.432-.763l.662.372,6.8,3.937a6.71,6.71,0,0,1,2.6,2.3A11.126,11.126,0,0,1,37.8,11.6l0,.013.072.046a.437.437,0,0,1,.167.6.429.429,0,0,1-.386.215m-7.306-5.2c.02.029.023.056.037.07l6.152,3.534a9.432,9.432,0,0,0-.468-.833A5.877,5.877,0,0,0,33.779,8.02L29.55,5.579a12.845,12.845,0,0,1,.589,1.162Z" transform="translate(11.387 1.261)" fill="#1f303e" fill-rule="evenodd"/>
        <path id="Path_506" data-name="Path 506" d="M33.886,14.215,26.441,9.92a.44.44,0,0,1-.269-.259,4.189,4.189,0,0,0-1.836-2.225l-.241-.113,7.448,4.291a3.986,3.986,0,0,1,1.949,2.041c.113.259.132.432.394.56" transform="translate(10.515 3.195)" fill="#fff" fill-rule="evenodd"/>
        <path id="Path_507" data-name="Path 507" d="M34.021,14.8a.472.472,0,0,1-.2-.042.344.344,0,0,1-.118-.075l-7.36-4.235A.854.854,0,0,1,25.92,10,3.813,3.813,0,0,0,24.47,8.1l-.461-.273a.434.434,0,0,1-.169-.587.447.447,0,0,1,.592-.188l.241.128c.08.046.162.1.237.145L31.9,11.364a4.491,4.491,0,0,1,2.123,2.225l.075.174c.037.113.056.155.08.174l.068.042a.436.436,0,0,1,.169.589.459.459,0,0,1-.392.23M26.579,9.309c.05.1.089.2.135.3l5.938,3.449a3.419,3.419,0,0,0-1.172-.918Z" transform="translate(10.38 3.058)" fill="#1f303e" fill-rule="evenodd"/>
        <path id="Path_508" data-name="Path 508" d="M18.7,8.855A1.71,1.71,0,0,1,19.352,7.3a11.17,11.17,0,0,1,6.74-2.7,6.155,6.155,0,0,1,1.885.373l.34.145,7.448,4.309a3.977,3.977,0,0,0-.694-.273,6.226,6.226,0,0,0-2.357-.217,11.419,11.419,0,0,0-5.443,2.314l-.556.429a1.68,1.68,0,0,0-.56,1.481l.28,1.049a.542.542,0,0,0,.23.315L19.22,10.232a.5.5,0,0,1-.233-.315Z" transform="translate(8.151 2.007)" fill="#658499" fill-rule="evenodd"/>
        <path id="Path_509" data-name="Path 509" d="M26.764,15.091a.409.409,0,0,1-.188-.046l-7.445-4.308a.938.938,0,0,1-.425-.531l-.3-1.106,0-.014a2.154,2.154,0,0,1,.8-2C20.293,6.225,23.153,4.2,26.233,4.3a6.326,6.326,0,0,1,2.037.389l.358.155,7.5,4.326a.434.434,0,0,1,.174.575.444.444,0,0,1-.57.213,5.306,5.306,0,0,0-.652-.254,5.7,5.7,0,0,0-2.183-.188,11.037,11.037,0,0,0-5.223,2.225l-.553.418a1.27,1.27,0,0,0-.4,1.017l.277,1.063a.482.482,0,0,1,.145.621.45.45,0,0,1-.375.23m-7.5-6.208.28,1.049,6.375,3.707-.065-.23a2.133,2.133,0,0,1,.692-1.925l.585-.461a12.069,12.069,0,0,1,5.672-2.4c.181-.014.372-.027.56-.027L27.936,5.51a5.439,5.439,0,0,0-1.725-.33h-.164c-2.731,0-5.3,1.807-6.29,2.6a1.273,1.273,0,0,0-.488,1.1" transform="translate(8.017 1.875)" fill="#1f303e" fill-rule="evenodd"/>
        <path id="Path_510" data-name="Path 510" d="M19.178,3.994c.411-.319,1-.734,1.428-1.007.4-.259,1-.616,1.418-.846.394-.217.988-.517,1.4-.691.379-.174.981-.4,1.367-.531.365-.113.964-.287,1.336-.359a12.785,12.785,0,0,1,1.3-.215A8.831,8.831,0,0,1,31.51.861l7.449,4.295a8.824,8.824,0,0,0-4.089-.5,11.83,11.83,0,0,0-1.294.2,18.859,18.859,0,0,0-7.66,4.006,1.876,1.876,0,0,0-.656,1.265l.033.259.279,1.064a.533.533,0,0,0,.241.315L18.364,7.47a.541.541,0,0,1-.241-.333L17.821,6c-.148-.947.734-1.524,1.357-2.01" transform="translate(7.77 0.131)" fill="#cdfdff" fill-rule="evenodd"/>
        <path id="Path_511" data-name="Path 511" d="M25.907,12.326a.463.463,0,0,1-.187-.042L18.274,7.975a.96.96,0,0,1-.428-.531L17.531,6.25c-.192-1.163.691-1.837,1.332-2.34l.174-.131s0,0,.007-.014c.418-.315,1.014-.73,1.452-1.017.411-.276,1.018-.633,1.446-.865a15.083,15.083,0,0,1,1.435-.707c.386-.169,1-.412,1.406-.54A11.851,11.851,0,0,1,26.158.26,11.389,11.389,0,0,1,27.51.047a9.08,9.08,0,0,1,4.276.531l7.522,4.334a.431.431,0,0,1,.181.565.455.455,0,0,1-.553.227,8.3,8.3,0,0,0-3.9-.487c-.338.043-.893.128-1.234.2a18.672,18.672,0,0,0-7.479,3.92,1.419,1.419,0,0,0-.487.921l.026.213.273.993a.489.489,0,0,1,.155.631.457.457,0,0,1-.379.23M19.582,4.469l-.181.144c-.645.5-1.1.906-1.01,1.452l.29,1.092,6.372,3.706-.1-.559a2.3,2.3,0,0,1,.807-1.652,19.654,19.654,0,0,1,7.853-4.1c.379-.086.968-.169,1.339-.215A14.643,14.643,0,0,1,36.5,4.3l-5.079-2.93A8.448,8.448,0,0,0,27.583.924a10.05,10.05,0,0,0-1.23.2,10.672,10.672,0,0,0-1.3.361c-.379.113-.96.345-1.329.5-.4.174-.978.461-1.36.678-.415.215-.993.573-1.386.817-.425.287-1,.691-1.4.991" transform="translate(7.639 0)" fill="#1f303e" fill-rule="evenodd"/>
        <path id="Path_512" data-name="Path 512" d="M33.722,13.835c-1.3-3.3-4.933-3.617-8.621-.776-.418.319-.816.259-.928-.155l-.28-1.05a1.273,1.273,0,0,1,.095-.819,1.747,1.747,0,0,1,.546-.733c5.058-3.98,10.053-3.519,11.786,1.063a1.1,1.1,0,0,1-.046.776,1.824,1.824,0,0,1-.514.776l-1.056.932c-.407.376-.832.362-.981-.014" transform="translate(10.413 3.315)" fill="#fff" fill-rule="evenodd"/>
        <path id="Path_513" data-name="Path 513" d="M34.261,14.7a1.218,1.218,0,0,1-.213-.029.883.883,0,0,1-.6-.546,3.63,3.63,0,0,0-2.384-2.3c-1.566-.432-3.59.187-5.556,1.711a1.165,1.165,0,0,1-1.06.256.909.909,0,0,1-.566-.645L23.6,12.1a1.7,1.7,0,0,1,.121-1.106,2.309,2.309,0,0,1,.681-.918c2.959-2.314,6.066-3.249,8.534-2.558a5.868,5.868,0,0,1,3.936,3.819,1.562,1.562,0,0,1-.042,1.092,2.315,2.315,0,0,1-.642.949l-1.053.935a1.407,1.407,0,0,1-.87.388m.01-.891c0,.014.007.014.007.014a1.543,1.543,0,0,0,.266-.174L35.6,12.72a1.537,1.537,0,0,0,.4-.587.775.775,0,0,0,.046-.49A5.055,5.055,0,0,0,32.7,8.365c-2.193-.616-5.022.259-7.754,2.415a1.465,1.465,0,0,0-.411.559.914.914,0,0,0-.082.531l.28,1.063c.01.029.1,0,.234-.1,2.218-1.708,4.464-2.37,6.329-1.853a4.441,4.441,0,0,1,2.976,2.831" transform="translate(10.278 3.184)" fill="#1f303e" fill-rule="evenodd"/>
        <path id="Path_514" data-name="Path 514" d="M38.735,11.58C36.726,5.761,30.5,5.2,24.268,10.272c-.427.343-.847.287-.961-.128l-.28-1.063a1.241,1.241,0,0,1,.092-.79,1.786,1.786,0,0,1,.531-.734C31.283,1.311,38.916,2,41.346,9.152a1.14,1.14,0,0,1-.06.776,1.84,1.84,0,0,1-.506.763l-1.057.918c-.418.372-.846.358-.988-.029" transform="translate(10.035 1.437)" fill="#fff" fill-rule="evenodd"/>
        <path id="Path_515" data-name="Path 515" d="M39.28,12.463a.548.548,0,0,1-.227-.032.868.868,0,0,1-.6-.575,6.161,6.161,0,0,0-4.115-4.22c-2.742-.793-6.26.345-9.658,3.116a1.144,1.144,0,0,1-1.082.273.876.876,0,0,1-.585-.631l-.279-1.063a1.675,1.675,0,0,1,.112-1.077,2.183,2.183,0,0,1,.659-.9C27.92,3.728,32.555,2.266,36.226,3.31A8.5,8.5,0,0,1,41.9,9.143a1.571,1.571,0,0,1-.06,1.063,2.215,2.215,0,0,1-.631.949l-1.056.932a1.352,1.352,0,0,1-.872.375m.007-.906c.007.029.014.029.014.029a1,1,0,0,0,.266-.157l1.053-.949A1.241,1.241,0,0,0,41,9.9a.747.747,0,0,0,.057-.488,7.6,7.6,0,0,0-5.075-5.241C32.594,3.2,28.253,4.6,24.064,8.037a1.222,1.222,0,0,0-.4.56.835.835,0,0,0-.078.5l.283,1.063c.007.029.106.014.249-.1,3.626-2.948,7.445-4.153,10.464-3.291a7.026,7.026,0,0,1,4.706,4.783" transform="translate(9.901 1.3)" fill="#1f303e" fill-rule="evenodd"/>
        <path id="Path_516" data-name="Path 516" d="M14.969,49.87c-2,1.148-3.8,1.251-5.106.5l-.007-.014L2.411,46.064a3.624,3.624,0,0,1-1.063-.949C.176,43.566.157,41.21.495,39.385a16.8,16.8,0,0,1,5.626-9.539l.323-.241c.056-.4.1-.776.169-1.179,1-5.715,4.971-12.136,10.046-15.081,1.991-1.149,4.575-1.939,6.793-.964l.223.1,1.546.891A8.336,8.336,0,0,1,30.419,11a4.212,4.212,0,0,1,1.379.273l.2.1,3.246,1.867.34-.07a4.176,4.176,0,0,1,2.254.2l.241.1,7.448,4.295c1.428.705,2.321,2.372,2.321,4.8a15.955,15.955,0,0,1-7.225,12.5Z" transform="translate(0.133 4.8)" fill="#cdfdff" fill-rule="evenodd"/>
        <path id="Path_517" data-name="Path 517" d="M11.878,51.443a4.226,4.226,0,0,1-2.1-.544L2.328,46.586a4.17,4.17,0,0,1-1.2-1.079c-1.484-1.952-1.151-4.9-.935-6.073a17.232,17.232,0,0,1,5.79-9.8l.184-.142c.047-.348.082-.677.142-1.005,1.077-6.177,5.3-12.513,10.266-15.4,1.517-.879,4.469-2.172,7.189-.978l.234.1,1.3.761a8.68,8.68,0,0,1,5.17-2.281h.089a4.11,4.11,0,0,1,1.531.315l.223.085,3.14,1.811.181-.029a4.607,4.607,0,0,1,2.5.217l.259.113,7.491,4.322c1.606.79,2.541,2.672,2.538,5.171a16.465,16.465,0,0,1-7.445,12.883L15.322,50.38a6.955,6.955,0,0,1-3.445,1.063m9.515-38.928a9.186,9.186,0,0,0-4.377,1.35c-4.756,2.759-8.8,8.834-9.834,14.769-.066.386-.112.744-.159,1.119a.5.5,0,0,1-.169.33l-.322.244A16.243,16.243,0,0,0,1.06,39.589c-.2,1.064-.5,3.707.771,5.387a3.072,3.072,0,0,0,.947.847l7.431,4.3c1.23.7,2.889.531,4.671-.5l25.654-14.8A15.476,15.476,0,0,0,47.54,22.7c0-2.14-.751-3.749-2.068-4.394l-7.679-4.4a3.855,3.855,0,0,0-2-.169l-.33.07a.441.441,0,0,1-.3-.043l-3.416-1.952a3.492,3.492,0,0,0-1.2-.23h-.075c-1.974,0-3.865,1.406-4.826,2.254a.424.424,0,0,1-.51.06L23.4,12.918a4.955,4.955,0,0,0-2.005-.4M15.1,50h0Z" transform="translate(0 4.666)" fill="#1f303e" fill-rule="evenodd"/>
        <path id="Path_518" data-name="Path 518" d="M12.708,48.562c-3.986,2.3-7.221.432-7.221-4.181,0-4.177,2.667-9.177,6.151-11.79.645-6.223,4.976-13.231,10.209-16.26,3.473-2,6.541-1.783,8.406.172A12.184,12.184,0,0,1,32.3,14.98c3.172-1.826,5.865-1.021,6.836,1.708,3.628-1.652,6.449.259,6.449,4.568a15.955,15.955,0,0,1-7.225,12.5Z" transform="translate(2.395 6.109)" fill="#fff" fill-rule="evenodd"/>
        <path id="Path_519" data-name="Path 519" d="M9.621,50.133a4.226,4.226,0,0,1-2.107-.546c-1.5-.879-2.336-2.676-2.333-5.075A16.526,16.526,0,0,1,11.35,32.479c.737-6.365,5.184-13.374,10.415-16.389,3.351-1.942,6.541-1.942,8.631-.046a11.871,11.871,0,0,1,1.821-1.321,5.951,5.951,0,0,1,4.943-.773,4.125,4.125,0,0,1,2.353,2.282,4.849,4.849,0,0,1,4.476.188c1.4.9,2.176,2.67,2.172,4.967a16.462,16.462,0,0,1-7.445,12.885L13.063,49.07a6.973,6.973,0,0,1-3.442,1.063m16.953-34.62a8.92,8.92,0,0,0-4.37,1.336c-5.056,2.916-9.351,9.755-9.992,15.918a.463.463,0,0,1-.178.315c-3.4,2.541-5.971,7.456-5.971,11.431,0,2.07.674,3.594,1.9,4.3s2.877.531,4.66-.5l25.656-14.8A15.484,15.484,0,0,0,45.28,21.387c0-1.981-.628-3.49-1.768-4.22a4.208,4.208,0,0,0-4.054.042.45.45,0,0,1-.358.016.492.492,0,0,1-.246-.26,3.427,3.427,0,0,0-2-2.2,5.127,5.127,0,0,0-4.2.73,11.256,11.256,0,0,0-1.977,1.467.441.441,0,0,1-.621-.013,4.632,4.632,0,0,0-3.49-1.439" transform="translate(2.261 5.976)" fill="#1f303e" fill-rule="evenodd"/>
        <path id="Path_520" data-name="Path 520" d="M12.168,28.827a.434.434,0,0,1-.224-.07L4.5,24.462a.439.439,0,0,1-.164-.6.433.433,0,0,1,.6-.159l7.448,4.295a.443.443,0,0,1,.167.6.45.45,0,0,1-.382.231" transform="translate(1.865 10.315)" fill="#1f303e" fill-rule="evenodd"/>
        <path id="Path_521" data-name="Path 521" d="M25.177,17.494a.379.379,0,0,1-.22-.056l-7.392-4.263a.44.44,0,0,1-.162-.606.427.427,0,0,1,.6-.157L25.4,16.678a.438.438,0,0,1,.162.6.43.43,0,0,1-.382.213" transform="translate(7.568 5.388)" fill="#1f303e" fill-rule="evenodd"/>
        <path id="Path_522" data-name="Path 522" d="M28.989,15.582a.452.452,0,0,1-.223-.072l-4.224-2.428a.456.456,0,0,1-.162-.615.462.462,0,0,1,.6-.161l4.222,2.442a.438.438,0,0,1,.169.6.451.451,0,0,1-.386.231" transform="translate(10.614 5.347)" fill="#1f303e" fill-rule="evenodd"/>
      </g>
    </g>
  </g>
</svg>
