<svg xmlns="http://www.w3.org/2000/svg" xmlns:xlink="http://www.w3.org/1999/xlink" width="20" height="35.865" viewBox="0 0 20 35.865">
  <defs>
    <clipPath id="clip-path">
      <rect id="Rectangle_238" data-name="Rectangle 238" width="20" height="35.865" fill="none"/>
    </clipPath>
  </defs>
  <g id="Group_1392" data-name="Group 1392" transform="translate(0 0)">
    <g id="Group_1391" data-name="Group 1391" transform="translate(0 0)" clip-path="url(#clip-path)">
      <path id="Path_523" data-name="Path 523" d="M13.526,1.166,12.034.309l-1.1.639L2.1,6.032A3.943,3.943,0,0,0,.313,9.13L.306,33.5a1.3,1.3,0,0,0,.522,1.155l1.491.868A1.306,1.306,0,0,1,1.8,34.363L1.8,9.988A3.936,3.936,0,0,1,3.591,6.9L12.422,1.8Z" transform="translate(-0.038 -0.039)" fill="#cdfdff" fill-rule="evenodd"/>
      <path id="Path_524" data-name="Path 524" d="M2.282,35.743a.276.276,0,0,1-.136-.034L.655,34.851A1.594,1.594,0,0,1,0,33.485L.009,9.093A4.182,4.182,0,0,1,1.918,5.776L11.859.032a.311.311,0,0,1,.276,0L13.624.9a.245.245,0,0,1,.132.227.274.274,0,0,1-.132.238L3.691,7.1a3.618,3.618,0,0,0-1.652,2.87L2.032,34.324c.046.5.061.648.418.946a.265.265,0,0,1-.169.473M12,.577,2.2,6.23A3.624,3.624,0,0,0,.549,9.1L.534,33.459c.053.508.06.648.427.946l.574.332c-.018-.114-.029-.246-.042-.384L1.5,9.95A4.2,4.2,0,0,1,3.407,6.633l9.541-5.506Z" transform="translate(0 0)" fill="#1f303e" fill-rule="evenodd"/>
      <path id="Path_525" data-name="Path 525" d="M3.8,35.511l14.387-8.3a3.941,3.941,0,0,0,1.785-3.09l.007-17.951V4.9L13.738,1.288l-1.1.639L3.8,7.021a3.972,3.972,0,0,0-1.789,3.09L2.008,34.485c0,1.13.8,1.594,1.787,1.026" transform="translate(-0.251 -0.161)" fill="#fff" fill-rule="evenodd"/>
      <path id="Path_526" data-name="Path 526" d="M2.96,35.988a1.2,1.2,0,0,1-.6-.158A1.5,1.5,0,0,1,1.7,34.447l.006-24.374A4.252,4.252,0,0,1,3.636,6.747l9.927-5.724a.249.249,0,0,1,.273,0l6.238,3.605a.267.267,0,0,1,.138.236L20.2,24.085a4.252,4.252,0,0,1-1.926,3.325l-14.384,8.3a1.848,1.848,0,0,1-.935.28m.8-.516h0ZM13.7,1.565,3.9,7.22A3.693,3.693,0,0,0,2.25,10.072L2.244,34.447a1.01,1.01,0,0,0,.387.92,1,1,0,0,0,.989-.123l14.392-8.3a3.75,3.75,0,0,0,1.652-2.863l.007-19.071Z" transform="translate(-0.213 -0.123)" fill="#1f303e" fill-rule="evenodd"/>
      <path id="Path_527" data-name="Path 527" d="M17.072,26.294l-11.2,6.478V22.146l11.2-6.469Z" transform="translate(-0.732 -1.956)" fill="#cdfdff" fill-rule="evenodd"/>
      <path id="Path_528" data-name="Path 528" d="M5.831,33a.251.251,0,0,1-.137-.034.259.259,0,0,1-.13-.227V22.109a.255.255,0,0,1,.13-.229L16.9,15.413a.274.274,0,0,1,.41.227V26.257a.282.282,0,0,1-.137.237L5.966,32.961A.244.244,0,0,1,5.831,33M6.1,22.267v9.994L16.768,26.1V16.113Zm10.931,3.99h0Z" transform="translate(-0.694 -1.919)" fill="#1f303e" fill-rule="evenodd"/>
      <path id="Path_529" data-name="Path 529" d="M18.27,23.769l-2.8,1.619v3.535l2.8-1.619Z" transform="translate(-1.93 -2.966)" fill="#cdfdff" fill-rule="evenodd"/>
      <path id="Path_530" data-name="Path 530" d="M15.433,29.157a.27.27,0,0,1-.137-.035.282.282,0,0,1-.137-.237V25.351a.283.283,0,0,1,.137-.238l2.8-1.619a.3.3,0,0,1,.271,0,.282.282,0,0,1,.137.237v3.535a.282.282,0,0,1-.137.237l-2.806,1.619a.226.226,0,0,1-.13.035M15.7,25.5v2.922l2.265-1.313V24.193Z" transform="translate(-1.891 -2.928)" fill="#1f303e" fill-rule="evenodd"/>
      <path id="Path_531" data-name="Path 531" d="M12.274,27.228l2.8-1.609v3.535l-2.8,1.619Z" transform="translate(-1.531 -3.197)" fill="#cdfdff" fill-rule="evenodd"/>
      <path id="Path_532" data-name="Path 532" d="M12.235,31.005a.311.311,0,0,1-.139-.036.278.278,0,0,1-.137-.235V27.188a.266.266,0,0,1,.137-.227l2.8-1.619a.244.244,0,0,1,.266,0,.264.264,0,0,1,.137.237v3.535a.268.268,0,0,1-.137.237l-2.8,1.617a.3.3,0,0,1-.129.036m.266-3.659V30.26l2.257-1.3V26.042Z" transform="translate(-1.492 -3.157)" fill="#1f303e" fill-rule="evenodd"/>
      <path id="Path_533" data-name="Path 533" d="M5.868,30.927l2.8-1.619v3.546l-2.8,1.619Z" transform="translate(-0.732 -3.657)" fill="#cdfdff" fill-rule="evenodd"/>
      <path id="Path_534" data-name="Path 534" d="M5.831,34.7a.251.251,0,0,1-.137-.034.259.259,0,0,1-.13-.227V30.889a.25.25,0,0,1,.13-.227L8.5,29.043a.243.243,0,0,1,.265,0,.253.253,0,0,1,.137.227v3.546a.252.252,0,0,1-.137.227l-2.8,1.619a.244.244,0,0,1-.135.034M6.1,31.047v2.915l2.259-1.3V29.743Z" transform="translate(-0.694 -3.619)" fill="#1f303e" fill-rule="evenodd"/>
      <path id="Path_535" data-name="Path 535" d="M11.874,27.457l-2.81,1.619v3.546L11.874,31Z" transform="translate(-1.131 -3.426)" fill="#cdfdff" fill-rule="evenodd"/>
      <path id="Path_536" data-name="Path 536" d="M9.026,32.855a.224.224,0,0,1-.128-.045.256.256,0,0,1-.138-.227V29.038a.257.257,0,0,1,.138-.227l2.8-1.619a.246.246,0,0,1,.267,0,.271.271,0,0,1,.137.227v3.545a.283.283,0,0,1-.137.235l-2.8,1.611a.223.223,0,0,1-.137.045M9.3,29.2V32.11l2.26-1.3V27.892Z" transform="translate(-1.093 -3.388)" fill="#1f303e" fill-rule="evenodd"/>
      <path id="Path_537" data-name="Path 537" d="M18.27,15.678l-2.8,1.619v3.537l2.8-1.61Z" transform="translate(-1.93 -1.956)" fill="#cdfdff" fill-rule="evenodd"/>
      <path id="Path_538" data-name="Path 538" d="M15.433,21.066a.252.252,0,0,1-.137-.034.271.271,0,0,1-.137-.235V17.259a.255.255,0,0,1,.137-.227l2.8-1.619a.253.253,0,0,1,.271,0,.257.257,0,0,1,.137.227v3.545a.257.257,0,0,1-.137.228l-2.806,1.619a.213.213,0,0,1-.13.034m.267-3.649v2.915l2.265-1.3V16.113Z" transform="translate(-1.891 -1.919)" fill="#1f303e" fill-rule="evenodd"/>
      <path id="Path_539" data-name="Path 539" d="M12.274,19.147l2.8-1.619v3.537l-2.8,1.619Z" transform="translate(-1.531 -2.187)" fill="#cdfdff" fill-rule="evenodd"/>
      <path id="Path_540" data-name="Path 540" d="M12.235,22.916a.248.248,0,0,1-.139-.034.282.282,0,0,1-.137-.235V19.109a.287.287,0,0,1,.137-.237l2.8-1.609a.248.248,0,0,1,.266,0,.241.241,0,0,1,.137.227v3.537a.256.256,0,0,1-.137.235l-2.8,1.619a.233.233,0,0,1-.129.034m.266-3.649v2.915l2.257-1.3V17.963Z" transform="translate(-1.492 -2.149)" fill="#1f303e" fill-rule="evenodd"/>
      <path id="Path_541" data-name="Path 541" d="M11.874,19.378,9.064,21v3.537l2.81-1.619Z" transform="translate(-1.131 -2.418)" fill="#cdfdff" fill-rule="evenodd"/>
      <path id="Path_542" data-name="Path 542" d="M9.026,24.765a.327.327,0,0,1-.128-.034A.285.285,0,0,1,8.76,24.5V20.959a.285.285,0,0,1,.138-.237l2.8-1.62a.3.3,0,0,1,.267,0,.294.294,0,0,1,.137.238v3.537a.288.288,0,0,1-.137.235l-2.8,1.619a.318.318,0,0,1-.137.034M9.3,21.116v2.915l2.26-1.3V19.812Z" transform="translate(-1.093 -2.38)" fill="#1f303e" fill-rule="evenodd"/>
      <path id="Path_543" data-name="Path 543" d="M2.152,9.636.661,8.777a3.5,3.5,0,0,0-.348,1.41L.307,34.553a1.3,1.3,0,0,0,.522,1.155l1.491.868A1.308,1.308,0,0,1,1.8,35.419L1.8,11.044a3.524,3.524,0,0,1,.349-1.407" transform="translate(-0.038 -1.095)" fill="#658499" fill-rule="evenodd"/>
      <path id="Path_544" data-name="Path 544" d="M2.281,36.8a.276.276,0,0,1-.136-.034L.655,35.908A1.592,1.592,0,0,1,0,34.54L.009,10.148A3.663,3.663,0,0,1,.382,8.618a.3.3,0,0,1,.159-.143A.316.316,0,0,1,.755,8.5l1.491.866a.262.262,0,0,1,.113.341,3.1,3.1,0,0,0-.32,1.313L2.032,35.381c.045.5.06.648.418.945a.266.266,0,0,1-.17.473M.755,9.123a3.007,3.007,0,0,0-.206,1.035L.533,34.514c.053.508.06.648.427.946l.574.333c-.018-.115-.029-.247-.041-.384l.005-24.4a3.892,3.892,0,0,1,.275-1.3Z" transform="translate(0 -1.057)" fill="#1f303e" fill-rule="evenodd"/>
    </g>
  </g>
</svg>
