<svg xmlns="http://www.w3.org/2000/svg" width="50" height="50" viewBox="0 0 50 50">
  <g id="Component" transform="translate(0)">
    <g id="Group_1287" data-name="Group 1287">
      <g id="Group_1286" data-name="Group 1286" transform="translate(0)">
        <path id="Path_315" data-name="Path 315" d="M281.842,46.094h-6.915a1.984,1.984,0,0,1-1.562-.743,2.041,2.041,0,0,1-.414-1.711A21.579,21.579,0,0,1,293.5,26.552c.165.006.331.01.5.01s.335,0,.5-.01a21.394,21.394,0,0,1,7.054,1.359,1.953,1.953,0,0,0,1.373-3.657q-.485-.182-.976-.343a13.281,13.281,0,1,0-15.9.007,25.4,25.4,0,0,0-16.928,18.926,5.934,5.934,0,0,0,5.8,7.156h6.915a1.953,1.953,0,1,0,0-3.906Zm2.783-32.813a9.375,9.375,0,1,1,9.832,9.364c-.152,0-.3-.005-.456-.005s-.305,0-.458,0A9.387,9.387,0,0,1,284.625,13.281Z" transform="translate(-269 0)" fill="#7de0dd"/>
        <path id="Path_316" data-name="Path 316" d="M697.332,847.943a5.263,5.263,0,0,0-4.8-3.087h-6.1a5.171,5.171,0,0,0-4.886,3.3c-.1.267-.228.6-.359,1H668.393a1.954,1.954,0,0,0-1.4.592l-3.355,3.456a1.953,1.953,0,0,0,.008,2.729l3.418,3.478a1.953,1.953,0,0,0,1.393.584H674.8a1.953,1.953,0,1,0,0-3.906h-5.529l-1.507-1.533,1.451-1.494h13.427a1.953,1.953,0,0,0,1.9-1.489,16.139,16.139,0,0,1,.643-2.011,1.28,1.28,0,0,1,1.244-.8h6.095a1.333,1.333,0,0,1,1.241.775,12.616,12.616,0,0,1,1.155,4.979,12.986,12.986,0,0,1-1.146,5.068,1.333,1.333,0,0,1-1.227.8H686.38a1.39,1.39,0,0,1-1.259-.865,12.973,12.973,0,0,1-.605-1.933,1.953,1.953,0,0,0-3.8.909,16.809,16.809,0,0,0,.793,2.513,5.268,5.268,0,0,0,4.866,3.282h6.177a5.237,5.237,0,0,0,4.8-3.145,16.907,16.907,0,0,0,1.472-6.638A16.534,16.534,0,0,0,697.332,847.943Z" transform="translate(-648.827 -814.289)" fill="#7de0dd"/>
        <circle id="Ellipse_24" data-name="Ellipse 24" cx="1.953" cy="1.953" r="1.953" transform="translate(40.137 38.281)" fill="#7de0dd"/>
      </g>
    </g>
  </g>
</svg>
