<svg xmlns="http://www.w3.org/2000/svg" width="34.22" height="25.447" viewBox="0 0 34.22 25.447">
  <g id="Group_1260" data-name="Group 1260" transform="translate(0 -42.299)">
    <path id="Path_360" data-name="Path 360" d="M5.311,112.778H23.331a1.555,1.555,0,1,0,0-3.111H5.311l2.011-2.011a1.555,1.555,0,0,0-2.2-2.2L.456,110.122c-.036.036-.07.074-.1.113l-.022.03c-.024.03-.047.06-.068.092l-.017.029c-.021.033-.042.067-.061.1l-.01.021c-.02.038-.038.077-.055.116l-.005.015c-.017.042-.033.084-.046.128,0,.005,0,.011,0,.017-.013.043-.024.086-.033.13,0,.013,0,.027-.006.04-.006.037-.013.073-.016.111a1.534,1.534,0,0,0,0,.311c0,.038.01.075.017.112,0,.013,0,.026.006.039.009.045.02.088.033.132l0,.016c.013.044.029.087.046.129l.005.014c.017.04.036.079.055.117l.01.021c.019.035.04.069.062.1l.017.028c.021.032.045.063.069.093l.022.03c.032.039.066.077.1.113l4.666,4.666a1.555,1.555,0,0,0,2.2-2.2Z" transform="translate(0 -56.2)" fill="#57bcb8"/>
    <path id="Path_361" data-name="Path 361" d="M113.676,42.3a12.714,12.714,0,0,0-10.567,5.634,1.555,1.555,0,0,0,2.582,1.735A9.613,9.613,0,1,1,105.7,60.4a1.555,1.555,0,0,0-2.578,1.741A12.724,12.724,0,1,0,113.676,42.3Z" transform="translate(-92.18 0)" fill="#57bcb8"/>
  </g>
</svg>
