<svg id="bond180_logo" data-name="bond180 logo" xmlns="http://www.w3.org/2000/svg" xmlns:xlink="http://www.w3.org/1999/xlink" width="219.902" height="38.215" viewBox="0 0 219.902 38.215">
  <defs>
    <clipPath id="clip-path">
      <path id="Path_298" data-name="Path 298" d="M448.949,590.271a3.306,3.306,0,0,1,2.558-1.21,3.182,3.182,0,0,1,2.71,1.174,3.5,3.5,0,0,1,.606,2.167,9.08,9.08,0,0,1-.471,2.258,12.151,12.151,0,0,1-.869,1.972,11.016,11.016,0,0,1-.613.977,7.058,7.058,0,0,1-6.141,3.111,6.892,6.892,0,0,1-4.8-1.669l-5.168,6.467c.335.254.577.419.932.645a17.751,17.751,0,0,0,17.971,0,15.939,15.939,0,0,0,5.9-6.755,24.463,24.463,0,0,0,0-19.691,17.7,17.7,0,0,0-1.81-2.975Z" transform="translate(-436.758 -576.741)" fill="none"/>
    </clipPath>
    <linearGradient id="linear-gradient" x1="-9.797" y1="5.039" x2="-9.775" y2="5.039" gradientUnits="objectBoundingBox">
      <stop offset="0" stop-color="#133054"/>
      <stop offset="1" stop-color="#3376a5"/>
    </linearGradient>
    <linearGradient id="linear-gradient-2" x1="0.5" y1="1" x2="0.5" y2="0" xlink:href="#linear-gradient"/>
  </defs>
  <path id="Path_292" data-name="Path 292" d="M144.872,588.245a9.189,9.189,0,0,1,.43,11.113,10.676,10.676,0,0,1-4.671,3.49,18.415,18.415,0,0,1-7.033,1.235H117.815v-36.5h15.461q5.422,0,8.616,2.5a8.049,8.049,0,0,1,3.194,6.683,8.709,8.709,0,0,1-1.664,5.315,8.51,8.51,0,0,1-4.724,3.113,10.253,10.253,0,0,1,6.174,3.06M132.256,583.9a11.242,11.242,0,0,0,6.791-1.77,5.8,5.8,0,0,0,2.389-4.94,5.347,5.347,0,0,0-2.309-4.537,10.324,10.324,0,0,0-6.228-1.691H121.627V583.9Zm8.321,14.872a5.988,5.988,0,0,0,2.63-5.048,5.4,5.4,0,0,0-2.523-4.751,12.656,12.656,0,0,0-7.087-1.69H121.627V600.7h11.864a11.727,11.727,0,0,0,7.086-1.932" transform="translate(-117.815 -566.771)" fill="#142f54"/>
  <path id="Path_293" data-name="Path 293" d="M192.919,587.567a12.688,12.688,0,0,1,4.752,4.724,12.93,12.93,0,0,1,1.745,6.6,13.167,13.167,0,0,1-1.745,6.683,12.813,12.813,0,0,1-4.752,4.778,13.031,13.031,0,0,1-6.656,1.745,13.176,13.176,0,0,1-6.684-1.745,12.742,12.742,0,0,1-4.778-4.778,13.161,13.161,0,0,1-1.745-6.683,12.877,12.877,0,0,1,1.745-6.63,12.675,12.675,0,0,1,4.778-4.7,13.326,13.326,0,0,1,6.684-1.717,13.179,13.179,0,0,1,6.656,1.717m-1.8,19.89a9.28,9.28,0,0,0,3.409-3.6,10.277,10.277,0,0,0,1.235-4.966,9.874,9.874,0,0,0-1.235-4.86,9.151,9.151,0,0,0-3.436-3.515,9.7,9.7,0,0,0-9.663,0A9.131,9.131,0,0,0,178,594.036a9.848,9.848,0,0,0-1.235,4.86A10.25,10.25,0,0,0,178,603.861a9.479,9.479,0,0,0,13.125,3.6" transform="translate(-139.623 -573.985)" fill="#142f54"/>
  <path id="Path_294" data-name="Path 294" d="M242.019,586.951a9.475,9.475,0,0,1,3.732,3.947,12.844,12.844,0,0,1,1.342,6.011V611.19h-3.651V597.071a8.243,8.243,0,0,0-2.067-5.96,7.288,7.288,0,0,0-5.5-2.147,9.766,9.766,0,0,0-4.67,1.207,11.488,11.488,0,0,0-3.866,3.409V611.19h-3.651v-24.8h3.651v2.953a12.887,12.887,0,0,1,9.18-3.759,10.863,10.863,0,0,1,5.5,1.369" transform="translate(-159.611 -573.88)" fill="#142f54"/>
  <path id="Path_295" data-name="Path 295" d="M291.234,604.06v-2.738a13.238,13.238,0,0,1-15.407,1.639,12.788,12.788,0,0,1-4.67-4.752,13.343,13.343,0,0,1,0-13.1,12.8,12.8,0,0,1,4.67-4.75A13.238,13.238,0,0,1,291.234,582V567.521h3.65V604.06Zm-3.731-3.731a10.705,10.705,0,0,0,3.731-3.355v-10.63a10.546,10.546,0,0,0-3.731-3.408,9.974,9.974,0,0,0-4.752-1.155,9.2,9.2,0,0,0-4.885,1.342,9.678,9.678,0,0,0-3.462,3.6,9.931,9.931,0,0,0-1.262,4.94,9.82,9.82,0,0,0,1.262,4.884,9.668,9.668,0,0,0,3.462,3.6,9.188,9.188,0,0,0,4.885,1.342,9.974,9.974,0,0,0,4.752-1.155" transform="translate(-177.673 -566.749)" fill="#142f54"/>
  <path id="Path_296" data-name="Path 296" d="M321.34,604.082v-7.354h9.127V577.133l-8.589,2.414V571.71l11.918-4.133h5.368v29.151H347.7v7.354Z" transform="translate(-198.163 -566.771)" fill="#142f54"/>
  <path id="Path_297" data-name="Path 297" d="M397.707,587.827a8.963,8.963,0,0,1,1.53,5.153,10.351,10.351,0,0,1-1.772,6.013,11.284,11.284,0,0,1-5.1,3.973,23.01,23.01,0,0,1-15.783,0,11.277,11.277,0,0,1-5.1-3.973,10.351,10.351,0,0,1-1.772-6.013,8.963,8.963,0,0,1,1.53-5.153,11.08,11.08,0,0,1,4.322-3.651,9.382,9.382,0,0,1-3.22-3.167,8.066,8.066,0,0,1-1.129-4.241,9.2,9.2,0,0,1,1.692-5.449,11.193,11.193,0,0,1,4.7-3.731,18.137,18.137,0,0,1,13.689,0,11.193,11.193,0,0,1,4.7,3.731,9.2,9.2,0,0,1,1.692,5.449,8.077,8.077,0,0,1-1.128,4.241,9.543,9.543,0,0,1-3.168,3.167,11.084,11.084,0,0,1,4.322,3.651m-9.342,8.025a4.477,4.477,0,0,0,1.584-3.461,4.248,4.248,0,0,0-1.584-3.383,5.891,5.891,0,0,0-3.945-1.342,5.787,5.787,0,0,0-3.919,1.342,4.276,4.276,0,0,0-1.557,3.383,4.49,4.49,0,0,0,1.557,3.489,6.19,6.19,0,0,0,7.864-.028m-7.542-21.768a4.415,4.415,0,0,0,0,6.442,5.659,5.659,0,0,0,7.22-.028,4.326,4.326,0,0,0,0-6.414,5.19,5.19,0,0,0-3.623-1.289,5.089,5.089,0,0,0-3.6,1.289" transform="translate(-217.259 -566.246)" fill="#142f54"/>
  <g id="Group_422" data-name="Group 422" transform="translate(193.03 6.352)">
    <g id="Group_421" data-name="Group 421" clip-path="url(#clip-path)">
      <rect id="Rectangle_88" data-name="Rectangle 88" width="26.97" height="31.853" transform="translate(-0.098 0.01)" fill="url(#linear-gradient)"/>
      <rect id="Rectangle_89" data-name="Rectangle 89" width="27" height="32" transform="translate(-0.03 0.433)" fill="url(#linear-gradient-2)"/>
    </g>
  </g>
  <path id="Path_299" data-name="Path 299" d="M433.914,585.5a13.765,13.765,0,0,1,2.171-8.046,7.564,7.564,0,0,1,11.909-.413l5.221-6.538a15.343,15.343,0,0,0-2.109-1.606,17.754,17.754,0,0,0-17.97,0,15.813,15.813,0,0,0-5.874,6.758,24.785,24.785,0,0,0,0,19.689,17.268,17.268,0,0,0,2.784,4.154l5.479-6.833a15,15,0,0,1-1.611-7.165" transform="translate(-239.174 -566.329)" fill="#142f54"/>
</svg>
