<svg xmlns="http://www.w3.org/2000/svg" width="44" height="44" viewBox="0 0 44 44">
  <g id="Group_1378" data-name="Group 1378" transform="translate(0)">
    <path id="Path_288" data-name="Path 288" d="M80,401.135a4.626,4.626,0,0,1-9.13,0l-.034-.2H68.4l.034.271a7.061,7.061,0,0,0,7,6.25,6.874,6.874,0,0,0,.807-.046,7.016,7.016,0,0,0,6.206-6.2l.032-.271h-2.44Z" transform="translate(-53.434 -363.454)" fill="#394d60"/>
    <path id="Path_289" data-name="Path 289" d="M105.464,417.485c-4.945-5.135-5.815-7.57-5.815-16.29a15.468,15.468,0,1,0-30.934.017A27.4,27.4,0,0,1,68,409.5a19.261,19.261,0,0,1-5.119,7.988,2.557,2.557,0,0,0,0,3.534,2.382,2.382,0,0,0,1.716.735H103.76a2.459,2.459,0,0,0,2.414-2.5A2.53,2.53,0,0,0,105.464,417.485ZM84.172,388.251h0a12.669,12.669,0,0,1,9.055,3.785,12.935,12.935,0,0,1,3.756,9.157c0,6.719,0,11.2,6.2,17.815H65.17c6.2-6.614,6.2-11.1,6.2-17.815A12.89,12.89,0,0,1,84.172,388.251Z" transform="translate(-62.175 -385.576)" fill="#394d60"/>
  </g>
</svg>
