<svg xmlns="http://www.w3.org/2000/svg" xmlns:xlink="http://www.w3.org/1999/xlink" width="75.247" height="90.897" viewBox="0 0 75.247 90.897">
  <defs>
    <clipPath id="clip-path">
      <rect id="Rectangle_217" data-name="Rectangle 217" width="75.247" height="90.897" fill="none"/>
    </clipPath>
  </defs>
  <g id="Group_1375" data-name="Group 1375" transform="translate(0 0)">
    <path id="Path_464" data-name="Path 464" d="M16.664,36.924l.017.03.015.038,0,.043v6.9l.005.091.01.092.022.069.025.069.032.059.042.051.044.05.05.03L20.3,46.395l-.053-.043-.044-.039-.039-.05-.033-.068-.027-.062-.02-.079-.012-.081,0-.089v-6.91l-.007-.039-.008-.04-.02-.032-.024-.01L16.639,36.9Z" transform="translate(20.067 44.145)" fill="#658499"/>
    <g id="Group_1374" data-name="Group 1374" transform="translate(0 0)">
      <g id="Group_1373" data-name="Group 1373" clip-path="url(#clip-path)">
        <path id="Path_465" data-name="Path 465" d="M24.582,56.229a.584.584,0,0,1-.3-.078l-7.008-3.77a1,1,0,0,0-.158-.1c-.025-.023-.217-.2-.242-.216s-.108-.159-.123-.177a1.7,1.7,0,0,1-.108-.192c-.01-.019-.071-.177-.081-.2l-.088-.6-.006-13.359a.553.553,0,0,1-.025-.719.721.721,0,0,1,.869-.154l7.016,3.789c.025.019.1.078.129.1a.382.382,0,0,1,.138.14.658.658,0,0,1,.1.191,1.038,1.038,0,0,1,.056.192l.063,13.905-.052.039.165.1h-.006a.6.6,0,0,1,.2.815.633.633,0,0,1-.536.294M17.906,51.35l5.583,2.992V41.394L17.751,38.3,17.8,51.216l-.5.383Z" transform="translate(17.689 34.554)" fill="#1f303e" fill-rule="evenodd"/>
        <path id="Path_466" data-name="Path 466" d="M28.983,33.774,21.967,30,14.78,45.381l7.006,3.774Z" transform="translate(16.019 28.331)" fill="#658499" fill-rule="evenodd"/>
        <path id="Path_467" data-name="Path 467" d="M22.12,50.046a.621.621,0,0,1-.315-.076L14.789,46.2a.6.6,0,0,1-.267-.764l7.191-15.377a.584.584,0,0,1,.386-.331.7.7,0,0,1,.523.039l7.012,3.774a.607.607,0,0,1,.273.778L22.71,49.7a.618.618,0,0,1-.39.331.685.685,0,0,1-.2.019m-6.2-4.623,5.9,3.165,6.673-14.269-5.9-3.171Z" transform="translate(15.686 28.039)" fill="#1f303e" fill-rule="evenodd"/>
        <path id="Path_468" data-name="Path 468" d="M22.151,45.613V59.047a1.072,1.072,0,0,0,.479.992,1.26,1.26,0,0,0,1.15-.119L26.9,58.25a3.266,3.266,0,0,0,1.163-1.145,3.026,3.026,0,0,0,.477-1.5V42.17a.885.885,0,0,1,.406-.663l3.584-1.923L25.34,31.943l-7.2,15.383,3.6-1.929c.225-.117.411-.019.411.216" transform="translate(19.664 30.162)" fill="#cdfdff" fill-rule="evenodd"/>
        <path id="Path_469" data-name="Path 469" d="M23.384,61.023a1.657,1.657,0,0,1-.744-.192,1.615,1.615,0,0,1-.792-1.5V46.5L18.8,48.135a.675.675,0,0,1-.75-.076.566.566,0,0,1-.165-.682L25.08,32a.6.6,0,0,1,.49-.354.677.677,0,0,1,.586.2l7.187,7.641a.567.567,0,0,1,.154.488.66.66,0,0,1-.319.428L29.6,42.321a.23.23,0,0,0-.081.134V55.894a3.478,3.478,0,0,1-.571,1.785,3.554,3.554,0,0,1-1.394,1.363l-3.115,1.693a2.239,2.239,0,0,1-1.054.288M22.259,45.041a.813.813,0,0,1,.427.1.827.827,0,0,1,.442.758V59.333c0,.274.081.428.16.467.06.037.24.019.513-.115l3.111-1.674a2.614,2.614,0,0,0,.925-.912,2.5,2.5,0,0,0,.39-1.205V42.456a1.419,1.419,0,0,1,.729-1.165l2.9-1.573-6.008-6.379L19.848,46.189l1.913-1.027a1.1,1.1,0,0,1,.5-.121" transform="translate(19.329 29.874)" fill="#1f303e" fill-rule="evenodd"/>
        <path id="Path_470" data-name="Path 470" d="M31.334,8.762l-.3-.719A9.917,9.917,0,0,0,28.1,4.214l-.54-.387-.567-.332L26.4,3.2,37.211,9.016a9.01,9.01,0,0,1,3.561,2.955,13.3,13.3,0,0,1,1.363,2.623.757.757,0,0,0,.386.393L31.714,9.154a.6.6,0,0,1-.379-.393" transform="translate(28.619 3.025)" fill="#658499" fill-rule="evenodd"/>
        <path id="Path_471" data-name="Path 471" d="M42.854,15.859a.834.834,0,0,1-.308-.058c-.04-.017-.077-.056-.106-.056L31.726,9.97a1.236,1.236,0,0,1-.638-.644c-.006-.019-.017-.039-.021-.058l-.294-.719A9.273,9.273,0,0,0,28,4.952l-.606-.426L26.414,4a.559.559,0,0,1-.235-.8.651.651,0,0,1,.863-.231l.971.523L37.863,8.8a9.485,9.485,0,0,1,3.763,3.109,14.015,14.015,0,0,1,1.444,2.763l-.01.019.108.056a.581.581,0,0,1,.242.82.634.634,0,0,1-.556.288m-10.6-7.036.056.1L41.235,13.7c-.2-.369-.411-.719-.673-1.128a8.511,8.511,0,0,0-3.32-2.743L31.107,6.525A14.747,14.747,0,0,1,31.961,8.1Z" transform="translate(28.284 2.735)" fill="#1f303e" fill-rule="evenodd"/>
        <path id="Path_472" data-name="Path 472" d="M38.3,16.665,27.5,10.851a.627.627,0,0,1-.392-.369A5.833,5.833,0,0,0,24.449,7.49L24.1,7.313l10.811,5.831a5.746,5.746,0,0,1,2.822,2.763c.165.352.2.585.571.758" transform="translate(26.116 6.906)" fill="#fff" fill-rule="evenodd"/>
        <path id="Path_473" data-name="Path 473" d="M38.631,17.554a.814.814,0,0,1-.283-.056c-.067-.043-.117-.062-.175-.1L27.507,11.661a1.128,1.128,0,0,1-.627-.6,5.216,5.216,0,0,0-2.1-2.566l-.665-.369a.572.572,0,0,1-.246-.8.673.673,0,0,1,.859-.249l.354.173c.115.056.227.134.329.2l10.148,5.463a6.189,6.189,0,0,1,3.074,3.012l.1.235c.06.154.092.212.123.229l.1.058a.572.572,0,0,1,.248.8.666.666,0,0,1-.571.311m-10.79-7.409c.063.115.123.253.19.389L36.641,15.2a4.865,4.865,0,0,0-1.7-1.242Z" transform="translate(25.784 6.622)" fill="#1f303e" fill-rule="evenodd"/>
        <path id="Path_474" data-name="Path 474" d="M18.714,10.351a2.243,2.243,0,0,1,.94-2.1c2.663-1.985,6.329-3.733,9.778-3.636a8.711,8.711,0,0,1,2.736.484l.5.2,10.807,5.833a6.079,6.079,0,0,0-1.013-.369,9.593,9.593,0,0,0-3.42-.294,17.227,17.227,0,0,0-7.9,3.128l-.806.585a2.2,2.2,0,0,0-.819,2l.413,1.419a.656.656,0,0,0,.338.428l-10.8-5.813a.731.731,0,0,1-.34-.428Z" transform="translate(20.244 4.356)" fill="#658499" fill-rule="evenodd"/>
        <path id="Path_475" data-name="Path 475" d="M30.549,18.906a.733.733,0,0,1-.277-.058l-10.8-5.833a1.293,1.293,0,0,1-.613-.719l-.436-1.5v-.017a2.839,2.839,0,0,1,1.161-2.706c1.573-1.165,5.727-3.9,10.2-3.77a9.749,9.749,0,0,1,2.94.523l.529.216L44.126,10.9a.57.57,0,0,1,.248.776.663.663,0,0,1-.829.294c-.348-.134-.611-.251-.94-.35a9.406,9.406,0,0,0-3.172-.249,16.263,16.263,0,0,0-7.573,3.012l-.8.56a1.676,1.676,0,0,0-.579,1.382l.4,1.419a.665.665,0,0,1,.206.879.7.7,0,0,1-.54.288m-10.878-8.4.406,1.419,9.242,5.018-.085-.313a2.786,2.786,0,0,1,1-2.6l.852-.624a18.115,18.115,0,0,1,8.221-3.247c.267-.019.54-.039.811-.039L32.241,5.94a9.29,9.29,0,0,0-2.5-.451c-4.051-.056-7.9,2.432-9.357,3.521a1.67,1.67,0,0,0-.715,1.5" transform="translate(19.912 4.061)" fill="#1f303e" fill-rule="evenodd"/>
        <path id="Path_476" data-name="Path 476" d="M19.8,5.3c.592-.428,1.444-.988,2.078-1.357.575-.35,1.438-.84,2.051-1.151.565-.288,1.43-.677,2.026-.931.544-.235,1.413-.546,1.98-.719.533-.157,1.4-.389,1.948-.484A18.656,18.656,0,0,1,31.75.363a13.619,13.619,0,0,1,5.937.7L48.494,6.876a13.6,13.6,0,0,0-5.933-.682c-.519.039-1.363.173-1.882.274a28.043,28.043,0,0,0-11.1,5.424A2.47,2.47,0,0,0,28.62,13.6l.046.35.406,1.439a.7.7,0,0,0,.348.428l-10.8-5.833a.635.635,0,0,1-.356-.406L17.83,8.021C17.613,6.736,18.9,5.958,19.8,5.3" transform="translate(19.299 0.287)" fill="#cdfdff" fill-rule="evenodd"/>
        <path id="Path_477" data-name="Path 477" d="M29.7,16.687a.713.713,0,0,1-.273-.058L18.624,10.8A1.31,1.31,0,0,1,18,10.079L17.54,8.461c-.273-1.573,1.007-2.485,1.938-3.169l.25-.173h.013c.606-.447,1.475-1.013,2.107-1.4.6-.369,1.475-.854,2.1-1.165.586-.294,1.469-.7,2.08-.955.561-.229,1.457-.562,2.042-.739.55-.173,1.44-.389,2-.5A17.536,17.536,0,0,1,32.021.064a14.058,14.058,0,0,1,6.21.719L49.14,6.653a.567.567,0,0,1,.263.758.662.662,0,0,1-.8.311,12.874,12.874,0,0,0-5.666-.657c-.473.058-1.279.173-1.788.268a27.872,27.872,0,0,0-10.853,5.31,1.913,1.913,0,0,0-.7,1.268l.042.268.39,1.343a.632.632,0,0,1,.227.854.667.667,0,0,1-.55.311M20.516,6.054l-.252.192c-.94.68-1.6,1.227-1.469,1.966l.425,1.5,9.248,5-.154-.762a3.067,3.067,0,0,1,1.173-2.236A29.368,29.368,0,0,1,40.874,6.169c.561-.115,1.413-.235,1.944-.292.842-.058,1.567-.078,2.24-.058L37.692,1.853a13.078,13.078,0,0,0-5.562-.6,16.666,16.666,0,0,0-1.784.272c-.529.1-1.367.332-1.878.49-.554.154-1.4.465-1.928.677-.581.235-1.423.624-1.98.916-.594.294-1.438.778-2.009,1.128-.617.369-1.45.912-2.036,1.324" transform="translate(18.971 0.001)" fill="#1f303e" fill-rule="evenodd"/>
        <path id="Path_478" data-name="Path 478" d="M38.168,16.044c-1.882-4.476-7.15-4.915-12.507-1.05-.606.426-1.182.35-1.346-.212L23.9,13.363a1.667,1.667,0,0,1,.15-1.108,2.523,2.523,0,0,1,.786-.994c7.337-5.386,14.579-4.761,17.1,1.421a1.5,1.5,0,0,1-.067,1.069,2.494,2.494,0,0,1-.74,1.05l-1.538,1.262c-.6.5-1.2.484-1.423-.019" transform="translate(25.862 7.177)" fill="#fff" fill-rule="evenodd"/>
        <path id="Path_479" data-name="Path 479" d="M39.093,17.322a1.653,1.653,0,0,1-.315-.039,1.243,1.243,0,0,1-.873-.743,5.076,5.076,0,0,0-3.459-3.109c-2.274-.579-5.208.274-8.06,2.312a1.786,1.786,0,0,1-1.534.352,1.271,1.271,0,0,1-.827-.873L23.618,13.8a2.163,2.163,0,0,1,.175-1.5,2.988,2.988,0,0,1,.988-1.229c4.287-3.146,8.8-4.413,12.378-3.476a8.284,8.284,0,0,1,5.712,5.17,1.973,1.973,0,0,1-.063,1.478,3.086,3.086,0,0,1-.929,1.285l-1.527,1.262a1.96,1.96,0,0,1-1.259.527m-6.175-5.271a7.528,7.528,0,0,1,1.871.235A6.256,6.256,0,0,1,39.1,16.112c.01.019.017.019.017.019a1.962,1.962,0,0,0,.39-.229l1.527-1.266a1.826,1.826,0,0,0,.565-.8.946.946,0,0,0,.073-.661A7.124,7.124,0,0,0,36.82,8.746c-3.193-.815-7.283.369-11.247,3.266a1.908,1.908,0,0,0-.592.758,1.071,1.071,0,0,0-.123.719l.411,1.419c.017.058.14.039.329-.1a12.912,12.912,0,0,1,7.321-2.763" transform="translate(25.528 6.892)" fill="#1f303e" fill-rule="evenodd"/>
        <path id="Path_480" data-name="Path 480" d="M45.828,14.508c-2.915-7.87-11.947-8.628-20.989-1.765-.623.465-1.229.389-1.394-.177l-.406-1.439a1.6,1.6,0,0,1,.133-1.069,2.454,2.454,0,0,1,.777-.988C35.012.608,46.09,1.544,49.623,11.228a1.5,1.5,0,0,1-.088,1.044A2.518,2.518,0,0,1,48.8,13.3L47.268,14.57c-.613.484-1.24.465-1.44-.062" transform="translate(24.924 3.112)" fill="#fff" fill-rule="evenodd"/>
        <path id="Path_481" data-name="Path 481" d="M46.754,15.814a1.016,1.016,0,0,1-.329-.037A1.246,1.246,0,0,1,45.56,15a8.684,8.684,0,0,0-5.968-5.718c-3.982-1.063-9.084.49-14.022,4.221A1.748,1.748,0,0,1,24,13.871a1.21,1.21,0,0,1-.838-.854l-.411-1.439a2.166,2.166,0,0,1,.163-1.458,3.137,3.137,0,0,1,.957-1.227C30.276,4,37,2.011,42.327,3.431a11.918,11.918,0,0,1,8.229,7.894,2.016,2.016,0,0,1-.088,1.458,3.338,3.338,0,0,1-.915,1.268l-1.525,1.262a2.053,2.053,0,0,1-1.275.5M37,7.747a12.025,12.025,0,0,1,2.94.369,9.865,9.865,0,0,1,6.827,6.474v.019a.264.264,0,0,1,.017.039c-.006-.019.154-.058.39-.235L48.7,13.134a1.77,1.77,0,0,0,.565-.778.987.987,0,0,0,.077-.663,10.7,10.7,0,0,0-7.371-7.1c-4.91-1.318-11.218.585-17.29,5.214a2.009,2.009,0,0,0-.579.776,1.116,1.116,0,0,0-.115.682l.411,1.439c.021.039.156.019.361-.14C28.909,9.44,33.213,7.747,37,7.747" transform="translate(24.59 2.817)" fill="#1f303e" fill-rule="evenodd"/>
        <path id="Path_482" data-name="Path 482" d="M21.586,63.614c-2.895,1.553-5.516,1.693-7.412.68h-.01l-10.8-5.813a5.286,5.286,0,0,1-1.552-1.3c-1.7-2.1-1.721-5.284-1.24-7.756A22.476,22.476,0,0,1,8.754,36.51l.469-.331c.071-.542.138-1.046.238-1.592C10.9,26.851,16.677,18.16,24.033,14.174c2.895-1.559,6.641-2.629,9.861-1.3l.319.138,2.24,1.205c2.021-1.655,4.783-3.247,7.542-3.21a6.218,6.218,0,0,1,2,.369l.3.14L51,14.034l.494-.1a6.417,6.417,0,0,1,3.27.274l.354.134,10.807,5.813c2.071.955,3.368,3.208,3.368,6.494-.01,6.239-4.7,13.8-10.488,16.934Z" transform="translate(0.33 10.39)" fill="#cdfdff" fill-rule="evenodd"/>
        <path id="Path_483" data-name="Path 483" d="M17.231,65.85a6.368,6.368,0,0,1-3.047-.739L3.378,59.278a5.726,5.726,0,0,1-1.742-1.456C-.513,55.178-.036,51.192.273,49.6A23.092,23.092,0,0,1,8.679,36.338l.267-.192c.06-.449.119-.9.21-1.361,1.559-8.36,7.679-16.936,14.893-20.846,2.2-1.184,6.483-2.934,10.426-1.322l.338.157,1.9,1.011c1.613-1.283,4.447-3.093,7.5-3.093h.123a6.531,6.531,0,0,1,2.226.428l.321.121,4.549,2.446.26-.039a7.149,7.149,0,0,1,3.647.292l.365.159L66.569,19.95c2.334,1.05,3.686,3.616,3.686,7,0,6.418-4.849,14.236-10.807,17.44L22.235,64.411a10.61,10.61,0,0,1-5,1.439m13.8-52.687a13.98,13.98,0,0,0-6.343,1.828c-6.9,3.731-12.77,11.957-14.266,19.987-.1.527-.165,1.03-.231,1.553a.619.619,0,0,1-.246.412l-.469.35A21.743,21.743,0,0,0,1.538,49.812C1.254,51.251.812,54.828,2.652,57.1a4.636,4.636,0,0,0,1.38,1.151l10.78,5.813c1.784.949,4.189.719,6.779-.686l37.22-20.026c5.6-3.012,10.159-10.378,10.159-16.407,0-2.9-1.09-5.074-3-5.947L54.833,15.049a5.742,5.742,0,0,0-2.909-.212l-.469.076A.737.737,0,0,1,51,14.857l-4.941-2.625a5.557,5.557,0,0,0-1.748-.334c-2.961-.058-5.7,1.909-7.1,3.054a.651.651,0,0,1-.744.076l-2.521-1.322a7.728,7.728,0,0,0-2.913-.542M21.916,63.907h0Z" transform="translate(0 10.096)" fill="#1f303e" fill-rule="evenodd"/>
        <path id="Path_484" data-name="Path 484" d="M15.967,60.784C10.178,63.9,5.489,61.369,5.489,55.13c0-5.662,3.872-12.428,8.921-15.968.94-8.417,7.212-17.9,14.814-22,5.033-2.706,9.486-2.413,12.189.249A16.882,16.882,0,0,1,44.4,15.33c4.6-2.471,8.508-1.382,9.911,2.292,5.266-2.216,9.363.369,9.363,6.2-.01,6.239-4.7,13.8-10.488,16.934Z" transform="translate(5.949 13.22)" fill="#fff" fill-rule="evenodd"/>
        <path id="Path_485" data-name="Path 485" d="M11.618,63.015a6.368,6.368,0,0,1-3.047-.739c-2.186-1.184-3.393-3.616-3.393-6.857,0-5.741,3.757-12.525,8.954-16.295,1.069-8.613,7.521-18.1,15.1-22.188,4.868-2.623,9.5-2.623,12.532-.056a17.418,17.418,0,0,1,2.642-1.791c2.576-1.377,5.12-1.75,7.166-1.05a5.822,5.822,0,0,1,3.42,3.1,7.477,7.477,0,0,1,6.487.253c2.036,1.223,3.157,3.616,3.157,6.725,0,6.418-4.849,14.236-10.807,17.44L16.622,61.576a10.61,10.61,0,0,1-5,1.439m24.6-46.854a13.617,13.617,0,0,0-6.339,1.808c-7.331,3.947-13.562,13.223-14.5,21.54a.626.626,0,0,1-.256.432C10.191,43.38,6.469,50.05,6.469,55.418c0,2.8.971,4.859,2.744,5.813s4.17.719,6.764-.686L53.2,40.52c5.6-3.012,10.159-10.378,10.159-16.407,0-2.681-.911-4.724-2.565-5.718-1.521-.91-3.613-.892-5.881.062a.676.676,0,0,1-.515.019.63.63,0,0,1-.354-.35,4.758,4.758,0,0,0-2.9-2.959c-1.686-.579-3.845-.229-6.087.974a17.157,17.157,0,0,0-2.874,1.985.665.665,0,0,1-.894-.019,6.97,6.97,0,0,0-5.064-1.946M16.3,61.072h0Z" transform="translate(5.613 12.932)" fill="#1f303e" fill-rule="evenodd"/>
        <path id="Path_486" data-name="Path 486" d="M15.723,30.662a.933.933,0,0,1-.325-.078L4.6,24.754a.577.577,0,0,1-.235-.82.662.662,0,0,1,.869-.212l10.811,5.813a.579.579,0,0,1,.235.815.65.65,0,0,1-.554.313" transform="translate(4.634 22.325)" fill="#1f303e" fill-rule="evenodd"/>
        <path id="Path_487" data-name="Path 487" d="M28.707,19.316a.628.628,0,0,1-.319-.078L17.665,13.464a.575.575,0,0,1-.235-.815.657.657,0,0,1,.879-.216l10.717,5.774a.565.565,0,0,1,.231.82.623.623,0,0,1-.55.288" transform="translate(18.799 11.66)" fill="#1f303e" fill-rule="evenodd"/>
        <path id="Path_488" data-name="Path 488" d="M31.092,16.761a.678.678,0,0,1-.319-.1L24.64,13.38a.587.587,0,0,1-.235-.817.675.675,0,0,1,.877-.233l6.135,3.3a.586.586,0,0,1,.235.817.666.666,0,0,1-.561.311" transform="translate(26.361 11.573)" fill="#1f303e" fill-rule="evenodd"/>
      </g>
    </g>
  </g>
</svg>
