<svg id="Component_2" data-name="Component 2" xmlns="http://www.w3.org/2000/svg" width="44" height="44" viewBox="0 0 44 44">
  <path id="Path_120" data-name="Path 120" d="M243.283,23.917a11.571,11.571,0,0,0,8.455-3.5,11.571,11.571,0,0,0,3.5-8.455,11.573,11.573,0,0,0-3.5-8.455,11.956,11.956,0,0,0-16.911,0,11.571,11.571,0,0,0-3.5,8.455,11.572,11.572,0,0,0,3.5,8.456A11.575,11.575,0,0,0,243.283,23.917Zm-6.4-18.356a9.046,9.046,0,0,1,12.8,0,8.645,8.645,0,0,1,2.651,6.4,8.645,8.645,0,0,1-2.651,6.4,9.045,9.045,0,0,1-12.8,0,8.644,8.644,0,0,1-2.652-6.4A8.644,8.644,0,0,1,236.885,5.56Z" transform="translate(-221.283)" fill="#394d60"/>
  <path id="Path_121" data-name="Path 121" d="M174.03,299.711a20.687,20.687,0,0,0-.427-2.689,17.879,17.879,0,0,0-.82-2.7,12.225,12.225,0,0,0-1.378-2.521,10.078,10.078,0,0,0-2.077-2.184,9.685,9.685,0,0,0-2.983-1.513,12.519,12.519,0,0,0-3.809-.556,4.424,4.424,0,0,0-2.065.706c-.619.326-1.343.7-2.151,1.119a13.95,13.95,0,0,1-2.783.989,13.277,13.277,0,0,1-6.807,0,13.9,13.9,0,0,1-2.781-.989c-.8-.413-1.525-.789-2.153-1.12a4.419,4.419,0,0,0-2.064-.706,12.5,12.5,0,0,0-3.808.557,9.674,9.674,0,0,0-2.984,1.513,10.073,10.073,0,0,0-2.076,2.184,12.244,12.244,0,0,0-1.377,2.522,17.925,17.925,0,0,0-.819,2.7,20.557,20.557,0,0,0-.427,2.69c-.07.812-.105,1.658-.105,2.513a6.427,6.427,0,0,0,2.6,5.346,10.751,10.751,0,0,0,6.7,1.972h25.394a10.752,10.752,0,0,0,6.7-1.972,6.424,6.424,0,0,0,2.6-5.346C174.137,301.367,174.1,300.522,174.03,299.711Zm-4.626,6.053a7.267,7.267,0,0,1-4.571,1.285H139.44a7.267,7.267,0,0,1-4.571-1.285,4.172,4.172,0,0,1-1.641-3.54c0-.8.033-1.585.1-2.341a18.58,18.58,0,0,1,.386-2.422,15.822,15.822,0,0,1,.721-2.383,9.968,9.968,0,0,1,1.121-2.05,7.458,7.458,0,0,1,1.526-1.614,6.428,6.428,0,0,1,1.985-1,8.616,8.616,0,0,1,2.434-.379c.108.046.3.135.613.3.635.334,1.368.715,2.177,1.133a18.083,18.083,0,0,0,15.7,0c.828-.427,1.54-.8,2.175-1.132.312-.164.505-.253.613-.3a8.622,8.622,0,0,1,2.435.379,6.444,6.444,0,0,1,1.984,1,7.444,7.444,0,0,1,1.526,1.614,9.935,9.935,0,0,1,1.121,2.05,15.749,15.749,0,0,1,.721,2.383,18.688,18.688,0,0,1,.386,2.422h0c.066.753.1,1.54.1,2.34A4.173,4.173,0,0,1,169.4,305.765Z" transform="translate(-130.137 -265.544)" fill="#394d60"/>
</svg>
